<mxfile host="app.diagrams.net" modified="2024-05-09T07:06:25.520Z" agent="Mozilla/5.0 (Windows NT 10.0; Win64; x64; rv:125.0) Gecko/20100101 Firefox/125.0" version="24.3.1" etag="FMOI-9m4lg6-NDebEJBz" type="github">
  <diagram name="第 1 页" id="PdCPY4-z82yVtDHnxqbl">
    <mxGraphModel>
      <root>
        <mxCell id="0" />
        <mxCell id="1" parent="0" />
      </root>
    </mxGraphModel>
  </diagram>
</mxfile>
